<svg width="30" height="24" viewBox="0 0 30 24" fill="none" xmlns="http://www.w3.org/2000/svg">
<path d="M28.125 9.88234H1.875C0.839473 9.88234 0 10.8305 0 12C0 13.1695 0.839473 14.1176 1.875 14.1176H28.125C29.1605 14.1176 30 13.1695 30 12C30 10.8305 29.1605 9.88234 28.125 9.88234Z" fill="#C5D3E3"/>
<path d="M1.875 4.2353H28.125C29.1605 4.2353 30 3.28719 30 2.11765C30 0.948112 29.1605 0 28.125 0H1.875C0.839473 0 0 0.948112 0 2.11765C0 3.28719 0.839473 4.2353 1.875 4.2353Z" fill="#C5D3E3"/>
<path d="M28.125 19.7648H1.875C0.839473 19.7648 0 20.7129 0 21.8824C0 23.052 0.839473 24.0001 1.875 24.0001H28.125C29.1605 24.0001 30 23.052 30 21.8824C30 20.7129 29.1605 19.7648 28.125 19.7648Z" fill="#C5D3E3"/>
</svg>
